PathFileType	4	(X/Y/Z)	D:\MotionData\Pi-Spi Study\20230118_AMCsubject1\Trimmed_left_abd_001_rotated.trc
DataRate	CameraRate	NumFrames	NumMarkers	Units	OrigDataRate	OrigDataStartFrame	OrigNumFrames
200.00	200.00	       7	35	mm	200.00	101	       200
Frame#	Time	C7			Sternum			r_AMC1			r_AMC2			r_AMC3			l_AMC1			l_AMC2			l_AMC3			PX			T8			r_humerous			r_elbow_medial			r_elbow_lateral			r_forearm			r_wrist_radius			r_wrist_ulna			r_MCP_1			r_MCP_3			l_humerous			l_elbow_medial			l_elbow_lateral			l_forearm			l_wrist_radius			l_wrist_ulna			l_MCP_1			l_MCP_3			r_ASIS			r_PSIS			l_ASIS			l_PSIS			r_IC			l_IC			TS			AI			AA			
		X1	Y1	Z1	X2	Y2	Z2	X3	Y3	Z3	X4	Y4	Z4	X5	Y5	Z5	X6	Y6	Z6	X7	Y7	Z7	X8	Y8	Z8	X9	Y9	Z9	X10	Y10	Z10	X11	Y11	Z11	X12	Y12	Z12	X13	Y13	Z13	X14	Y14	Z14	X15	Y15	Z15	X16	Y16	Z16	X17	Y17	Z17	X18	Y18	Z18	X19	Y19	Z19	X20	Y20	Z20	X21	Y21	Z21	X22	Y22	Z22	X23	Y23	Z23	X24	Y24	Z24	X25	Y25	Z25	X26	Y26	Z26	X27	Y27	Z27	X28	Y28	Z28	X29	Y29	Z29	X30	Y30	Z30	X31	Y31	Z31	X32	Y32	Z32	X33	Y33	Z33	X34	Y34	Z34	X35	Y35	Z35	

101	0.5	208.2398	1374.4994	-206.443	336.4367	1302.6073	-199.4024	209.4111	1315.6178	-41.4732	247.2678	1311.7166	-9.2395	268.1516	1346.3364	-29.4011	228.6713	1324.3634	-372.43	267.7239	1316.0804	-404.0983	291.7226	1351.4274	-374.4153	390.9919	1112.4889	-195.615	158.0735	1191.29	-216.8024	314.6511	1124.954	-1.6393	250.3898	986.3295	-32.8351	256.9099	995.3204	35.5594	312.5888	841.2798	61.0496	364.7282	779.6622	45.4797	315.7551	771.9318	60.7111	387.8103	697.5551	59.6688	338.6925	692.9161	70.9261	350.7458	1122.7916	-395.8299	290.0602	993.5641	-368.1994	294.4151	989.2999	-420.4968	329.6169	840.0144	-452.9562	370.7024	766.7592	-448.0139	325.7912	763.0404	-447.459	378.7457	687.3655	-458.3312	330.2068	684.0656	-452.7244	376.2405	906.7147	-66.5353	186.9584	923.8663	-152.6453	380.4367	893.3125	-328.6471	189.2218	918.5978	-255.9647	286.1343	966.1504	-41.2398	288.9064	938.8317	-366.6223	133.7347	1309.1488	-322.5189	119.5776	1209.2566	-314.094	210.2281	1293.5222	-436.8084
102	0.505	208.1983	1374.4327	-206.41	335.3213	1302.2415	-199.8612	208.7051	1315.8329	-40.3187	247.3196	1311.7607	-9.2341	268.1399	1346.361	-29.393	228.6743	1324.3814	-372.4069	267.7215	1316.0734	-404.0891	291.7271	1351.5377	-374.6498	391.0039	1112.4556	-195.578	158.0818	1191.2745	-216.8007	314.6576	1124.9816	-1.6993	250.3619	986.3187	-32.8239	256.9404	995.3157	35.5512	312.5898	841.2586	61.0562	364.7174	779.6531	45.5192	315.7132	771.941	60.7274	387.8237	697.4968	59.6661	338.6463	693.0067	70.9337	351.1387	1122.9772	-395.9214	290.0611	993.5757	-368.1981	294.3964	989.2955	-420.4863	329.6175	839.9993	-452.9426	370.7042	766.7164	-447.9553	325.8127	763.0338	-447.4581	378.7947	687.3243	-458.3367	330.2422	684.059	-452.6888	376.2262	906.7469	-66.5084	186.9787	923.918	-152.6101	380.4277	893.3116	-328.637	189.2067	918.6009	-255.9288	286.1157	966.1501	-41.2623	288.9302	938.8233	-366.621	133.7488	1309.1548	-322.5097	119.5791	1209.2775	-314.0497	210.2681	1293.4597	-436.6486
103	0.51	208.2081	1374.4414	-206.3914	335.2804	1302.2156	-199.835	208.6943	1315.8301	-40.3015	247.2882	1311.7978	-9.2193	268.2004	1346.3009	-29.4002	228.8334	1324.2883	-372.1706	267.7284	1316.0847	-404.0689	291.753	1351.5292	-374.6494	391.0007	1112.47	-195.6086	158.0657	1191.2893	-216.7896	314.6769	1124.9062	-1.6614	250.4108	986.3245	-32.8466	256.9393	995.2852	35.5457	312.5599	841.2684	61.0661	364.7369	779.6425	45.4761	315.6633	771.9657	60.7058	387.781	697.494	59.6857	338.7014	692.8803	70.8863	350.7642	1122.8087	-395.8178	290.0588	993.5805	-368.1913	294.441	989.3073	-420.461	329.6379	840.0015	-452.945	370.6956	766.7369	-447.9552	325.8391	763.0119	-447.4395	379.0646	687.2652	-458.429	329.9255	684.8276	-452.7811	376.2099	906.7291	-66.4987	186.9714	923.9405	-152.5981	380.4318	893.3055	-328.6275	189.2252	918.5925	-255.944	286.1223	966.1416	-41.2564	288.9204	938.8328	-366.6136	133.7283	1309.1609	-322.4971	119.563	1209.2483	-314.0002	210.238	1293.5149	-436.8106
104	0.515	208.2796	1374.5012	-206.4022	335.7063	1302.546	-199.78	209.4246	1315.6113	-41.434	247.2566	1311.7566	-9.1799	268.2155	1346.32	-29.3868	228.7289	1324.3308	-372.3874	267.7412	1316.0691	-404.0598	291.7076	1351.4465	-374.2844	390.9887	1112.4354	-195.5654	158.0894	1191.2821	-216.7844	314.6675	1124.955	-1.6534	250.3472	986.3373	-32.7929	256.9219	995.2669	35.5244	312.637	841.2407	61.0148	364.7294	779.633	45.4687	315.786	771.8578	60.6483	387.7443	697.5599	59.6749	338.6675	692.9452	70.8684	350.803	1122.7567	-395.7865	290.0586	993.5801	-368.1913	294.4041	989.2744	-420.4664	329.6929	840.0009	-452.936	370.7435	766.7424	-447.9636	325.8523	763.004	-447.4278	379.087	687.2548	-458.4231	330.2816	684.0548	-452.7052	376.2267	906.706	-66.4748	186.9894	923.9224	-152.5916	380.418	893.3124	-328.6035	189.2256	918.6037	-255.9342	286.0759	966.1762	-41.2612	288.9251	938.8286	-366.6075	133.7688	1309.15	-322.5006	119.5832	1209.2609	-313.9874	210.2345	1293.5115	-436.8115
105	0.52	208.2322	1374.445	-206.3755	336.1241	1302.2899	-199.4373	209.4195	1315.6034	-41.4144	247.3168	1311.7438	-9.1813	268.1921	1346.3237	-29.3779	228.8818	1324.2451	-372.1871	267.7539	1316.0641	-404.0464	291.7262	1351.4446	-374.2647	391.0254	1112.4369	-195.5651	158.0855	1191.2794	-216.7579	314.689	1124.9291	-1.6455	250.3646	986.3323	-32.8114	256.9707	995.3235	35.5452	312.6191	841.2363	61.0208	364.7297	779.5987	45.4651	315.7328	771.8812	60.6495	387.8913	697.399	59.5468	338.6467	692.9602	70.8886	351.1782	1122.9132	-395.844	290.0829	993.5496	-368.1493	294.4307	989.2795	-420.4571	329.6798	839.9779	-452.9128	370.7675	766.725	-447.9132	325.8671	763.014	-447.4071	378.887	687.2736	-458.2466	330.3048	684.0266	-452.6579	376.2428	906.6959	-66.4806	186.9764	923.92	-152.5586	380.3823	893.2742	-328.6072	189.2226	918.6074	-255.9248	286.1358	966.1572	-41.2293	288.8931	938.8384	-366.6068	133.7463	1309.1394	-322.4564	119.5927	1209.2422	-313.9775	210.2245	1293.4982	-436.7417
106	0.525	208.2169	1374.4424	-206.3403	336.1334	1302.2715	-199.4452	209.4384	1315.5894	-41.4043	247.3557	1311.7467	-9.1743	268.2036	1346.3014	-29.3422	228.8933	1324.2192	-372.1736	267.769	1316.0488	-404.0488	291.7122	1351.4474	-374.2469	390.9605	1112.4337	-195.5603	158.0913	1191.2675	-216.7538	314.7024	1124.8971	-1.6725	250.3793	986.3258	-32.8207	256.9493	995.2697	35.5104	312.6277	841.2046	61.0265	364.756	779.5995	45.4169	315.7157	771.8954	60.6628	387.792	697.4878	59.6292	338.748	692.846	70.8525	351.1582	1122.9668	-395.8338	290.0849	993.5723	-368.1613	294.4291	989.278	-420.435	329.6875	839.9708	-452.8968	370.7698	766.7225	-447.9153	325.8859	763.0074	-447.3951	378.8552	687.3985	-458.2973	330.3023	684.0248	-452.6114	376.2328	906.7345	-66.4782	186.9754	923.9207	-152.5775	380.3991	893.2803	-328.5835	189.2023	918.5819	-255.8775	286.1464	966.0878	-41.2139	288.9202	938.8083	-366.5929	133.7577	1309.1256	-322.4544	119.6016	1209.2355	-313.9645	210.2419	1293.4669	-436.7508
107	0.53	208.3091	1374.4988	-206.3845	336.4683	1302.6001	-199.3177	208.7356	1315.8245	-40.2451	247.3086	1311.7508	-9.1499	268.2176	1346.2975	-29.3377	228.74	1324.3535	-372.3545	267.777	1316.0731	-404.0262	291.7252	1351.5868	-374.591	390.9763	1112.4039	-195.5485	158.088	1191.2882	-216.7335	314.7024	1124.9189	-1.6415	250.4158	986.318	-32.8397	256.9578	995.2681	35.5119	312.5889	841.2398	61.0233	364.7644	779.5366	45.4529	315.841	771.7706	60.6179	387.7957	697.4537	59.5918	338.6556	692.9046	70.8778	351.2059	1122.9752	-395.8381	290.1006	993.5512	-368.1271	294.4382	989.2787	-420.4112	329.7031	839.9699	-452.8689	370.7739	766.7415	-447.8832	325.8914	763.0034	-447.3932	379.1714	687.1764	-458.3518	330.3188	684.0144	-452.6164	376.2331	906.7219	-66.4771	186.9846	923.9283	-152.5595	380.4203	893.2945	-328.5743	189.2122	918.5913	-255.8818	286.1059	966.1602	-41.2402	288.9097	938.8293	-366.582	133.7752	1309.131	-322.4873	119.6407	1209.2485	-313.9537	210.2034	1293.4251	-436.7458
